<?xml version="1.0" encoding="UTF-8"?>
<svg id="a" data-name="Ebene 1" xmlns="http://www.w3.org/2000/svg" viewBox="0 0 200 80">
  <defs>
    <style>
      .b {
        fill: #fff;
      }
    </style>
  </defs>
  <path class="b" d="M121.106,11.423c-2.975,0-5.455-2.474-5.455-5.51s2.534-5.511,5.621-5.511c3.031,0,5.4,2.474,5.4,5.511s-2.48,5.51-5.566,5.51M125.336,42.242V14.596l-8.35.78v26.867h8.35ZM150.95.403c.052,1.135,0,41.839,0,41.839h8.42s0-41.839,0-41.839h-8.42ZM145.756,14.986h-4.169v-2.858c0-1.85,1.5-3.35,3.35-3.35h.816V.403h-2.256c-5.681,0-10.287,4.605-10.287,10.286v4.297h-3.13v5.878h3.13v21.378s8.401,0,8.401,0v-21.378h4.144v-5.878ZM189.14.403h-22.885v8.376h21.446c1.85,0,3.349,1.499,3.349,3.349v33.466c0,1.867-1.513,3.38-3.38,3.38h-26.279l-19.78,14.25v-14.242s-8.401,0-8.401,0l.025,30.599,30.858-22.231h23.577c6.492,0,11.755-5.263,11.755-11.756V10.689c0-5.681-4.605-10.286-10.286-10.286M175.694,15.387h-9.713l-6.561,10.514,7.291,16.395h9.784l-9.329-16.395,8.528-10.514ZM16.46,18.768c.404.664.505,1.646.505,2.815,0,2.122-.606,3.147-1.934,3.147h-1.083v-6.8h.924c.794,0,1.256.289,1.588.838M18.222,24.875c.678-.909,1.01-2.108,1.01-3.479,0-1.804-.447-3.089-1.371-3.999-.607-.606-1.343-.924-2.195-.996-.404-.028-1.169-.058-1.747-.058h-2.021v10.034h2.44c.591,0,1.068-.029,1.443-.058.938-.072,1.833-.62,2.44-1.444M25.012,21.872h-2.238v-.029c0-1.025.42-1.602,1.156-1.602.39,0,.664.144.852.432.173.275.23.563.23,1.112v.087ZM27.019,23.287v-.447c0-1.545-.303-2.541-.981-3.234-.476-.491-1.285-.78-2.137-.78-.981,0-1.718.318-2.325.996-.65.722-.924,1.603-.924,2.931,0,2.324,1.371,3.826,3.494,3.826,1.04,0,1.935-.332,2.787-1.025l-.751-1.155c-.591.49-1.212.736-1.876.736-.997,0-1.559-.65-1.559-1.79v-.058h4.273ZM32.749,21.035c.129.361.188.924.188,1.631,0,1.689-.376,2.339-1.329,2.339-.39,0-.808-.217-1.068-.433v-3.595c.347-.361.808-.563,1.285-.563s.779.216.924.621M34.019,25.698c.766-.824,1.025-1.632,1.025-3.22,0-1.704-.578-2.656-1.371-3.19-.405-.275-.938-.447-1.458-.447-.751,0-1.487.289-1.82.693-.014-.231-.057-.432-.129-.693l-1.719.303c.101.621.116.895.116,1.862v8.547l1.862-.491v-2.31c0-.216,0-.434-.029-.606.419.246.967.39,1.544.39.809,0,1.473-.304,1.978-.838M40.282,23.143l-.028,1.588c-.289.318-.65.505-1.012.505-.49,0-.851-.39-.851-.967,0-.88.462-1.126,1.804-1.126h.086ZM42.866,25.568c-.649-.491-.707-.838-.692-1.646l.043-2.483c.014-.794-.028-1.025-.129-1.328-.289-.823-1.141-1.285-2.383-1.285-.678,0-1.298.13-2.021.433-.519.216-.809.361-1.199.606l.823,1.386c.795-.534,1.516-.837,2.137-.837.708,0,.867.274.867,1.097v.304c-.158-.014-.289-.014-.432-.014-2.354,0-3.552.809-3.552,2.541,0,1.473.895,2.31,2.542,2.31.606,0,1.125-.144,1.486-.404.145-.101.304-.245.449-.39.188.376.591.708,1.039.895l1.025-1.184ZM48.58,18.97c-.302-.13-.432-.158-.722-.158-.722,0-1.314.49-1.732,1.054-.029-.419-.13-.751-.304-1.054l-1.732.462c.158.419.274,1.169.274,2.166v4.937h1.935v-5.227c.361-.419.751-.62,1.183-.62.217,0,.376.043.563.144l.534-1.704ZM52.245,26.55c.506,0,1.01-.101,1.574-.332l-.245-1.155c-.347.101-.52.144-.693.144-.664,0-.838-.245-.838-1.184v-3.711h1.242l.491-1.328h-1.733c0-.751.044-1.559.116-2.238l-1.964.491c-.072.548-.072,1.025-.072,1.747h-.736v1.328h.736v4.013c0,.679.014.824.13,1.141.23.649,1.01,1.082,1.992,1.082M64.738,26.377v-5.255c0-1.01-.13-1.444-.549-1.804-.332-.289-.88-.462-1.458-.462-.808,0-1.414.274-2.093.967-.086-.13-.188-.26-.289-.361-.39-.405-.895-.606-1.502-.606-.678,0-1.3.26-1.804.751-.071-.376-.13-.549-.26-.751l-1.747.476c.201.361.274.824.274,1.892v5.154h1.891v-5.385c.419-.376.909-.563,1.27-.563.535,0,.664.216.664,1.14v4.808h1.833v-5.313c.42-.375.924-.621,1.285-.621.505,0,.607.173.607,1.054v4.879h1.877ZM70.855,21.872h-2.238v-.029c0-1.025.42-1.602,1.156-1.602.39,0,.664.144.852.432.173.275.23.563.23,1.112v.087ZM72.862,23.287v-.447c0-1.545-.303-2.541-.981-3.234-.476-.491-1.285-.78-2.137-.78-.981,0-1.718.318-2.324.996-.65.722-.924,1.603-.924,2.931,0,2.324,1.371,3.826,3.494,3.826,1.04,0,1.935-.332,2.787-1.025l-.751-1.155c-.591.49-1.212.736-1.876.736-.997,0-1.559-.65-1.559-1.79v-.058h4.273ZM80.356,26.377v-5.399c0-.462-.043-.78-.144-1.054-.232-.636-.953-1.068-1.776-1.068-.433,0-.939.115-1.327.318-.318.173-.563.346-.852.548,0-.303-.101-.621-.274-.924l-1.719.49c.173.491.261,1.098.261,1.733v5.356h1.935v-5.226c.447-.405.952-.664,1.342-.664.506,0,.65.245.65,1.082v4.808h1.905ZM84.675,26.55c.505,0,1.01-.101,1.574-.332l-.246-1.155c-.346.101-.519.144-.692.144-.664,0-.838-.245-.838-1.184v-3.711h1.241l.491-1.328h-1.733c0-.751.043-1.559.116-2.238l-1.964.491c-.072.548-.072,1.025-.072,1.747h-.736v1.328h.736v4.013c0,.679.013.824.129,1.141.231.649,1.01,1.082,1.993,1.082M94.84,20.66c.26.332.389.981.389,1.978,0,1.747-.361,2.498-1.198,2.498-.375,0-.808-.202-.981-.606-.159-.376-.245-1.01-.245-1.862,0-.736.072-1.256.202-1.646.159-.462.534-.751.996-.751.347,0,.65.144.838.39M96.414,25.511c.635-.722.924-1.588.924-2.858,0-1.199-.261-2.007-.852-2.7-.635-.751-1.458-1.111-2.512-1.111-1.992,0-3.32,1.545-3.32,3.869s1.314,3.827,3.32,3.827c1.141,0,1.877-.39,2.44-1.025M103.172,16.141c-.592-.332-1.112-.462-1.747-.462-1.516,0-2.383.837-2.383,2.295,0,.332.029.707.073,1.01h-.708v1.328h.664v6.064h1.892v-6.064h1.371l.49-1.328h-1.876v-1.054c0-.534.317-.838.808-.838.23,0,.376.043.794.246l.621-1.198ZM8.959,42.435c1.14,0,1.992-.288,2.785-.938l-.924-1.271c-.591.476-1.125.649-1.718.649-.867,0-1.53-.39-1.934-1.126-.304-.548-.419-1.314-.419-2.685,0-1.169.173-2.007.562-2.585.362-.534,1.025-.866,1.704-.866.563,0,1.097.188,1.603.563l.909-1.371c-.548-.476-1.545-.794-2.542-.794-1.616,0-3.061.866-3.84,2.324-.462.866-.679,1.862-.679,3.118,0,1.473.405,2.685,1.213,3.595.823.938,1.892,1.386,3.278,1.386M16.761,36.544c.26.332.389.982.389,1.978,0,1.747-.361,2.498-1.198,2.498-.375,0-.808-.202-.981-.606-.159-.376-.245-1.01-.245-1.862,0-.736.072-1.256.202-1.646.159-.462.534-.751.996-.751.347,0,.65.144.838.39M18.335,41.395c.635-.722.924-1.588.924-2.858,0-1.199-.261-2.007-.852-2.7-.635-.751-1.458-1.112-2.512-1.112-1.992,0-3.32,1.545-3.32,3.869s1.314,3.827,3.32,3.827c1.141,0,1.877-.39,2.44-1.025M30.366,42.262v-5.255c0-1.01-.13-1.444-.548-1.804-.332-.289-.881-.462-1.458-.462-.809,0-1.415.274-2.094.967-.086-.13-.188-.26-.288-.361-.39-.405-.896-.606-1.502-.606-.679,0-1.3.26-1.805.751-.071-.376-.129-.549-.26-.751l-1.747.476c.202.361.274.823.274,1.891v5.154h1.892v-5.385c.418-.376.909-.563,1.27-.563.534,0,.664.216.664,1.14v4.808h1.833v-5.313c.419-.375.924-.621,1.285-.621.504,0,.606.173.606,1.054v4.879h1.877ZM41.949,42.262v-5.255c0-1.01-.13-1.444-.549-1.804-.332-.289-.88-.462-1.458-.462-.808,0-1.414.274-2.093.967-.086-.13-.188-.26-.289-.361-.39-.405-.895-.606-1.502-.606-.678,0-1.3.26-1.804.751-.072-.376-.13-.549-.26-.751l-1.747.476c.201.361.274.823.274,1.891v5.154h1.891v-5.385c.419-.376.909-.563,1.27-.563.535,0,.665.216.665,1.14v4.808h1.833v-5.313c.42-.375.924-.621,1.285-.621.505,0,.607.173.607,1.054v4.879h1.877ZM50.284,41.684c-.289-.347-.447-.852-.447-1.342v-5.645l-1.848.39v5.198c-.144.361-.722.707-1.198.707-.289,0-.578-.144-.679-.346-.1-.203-.158-.549-.158-1.213v-4.75l-1.905.361v4.736c0,.751.043,1.141.159,1.473.245.707,1.141,1.198,2.181,1.198.779,0,1.472-.246,1.948-.708.13.304.333.548.578.722l1.371-.78ZM57.877,42.262v-5.399c0-.462-.043-.78-.144-1.054-.232-.636-.953-1.068-1.776-1.068-.433,0-.938.115-1.327.318-.318.173-.563.346-.852.548,0-.303-.101-.621-.274-.924l-1.719.49c.173.491.261,1.098.261,1.733v5.356h1.935v-5.226c.447-.405.952-.664,1.342-.664.506,0,.65.245.65,1.083v4.808h1.905ZM61.942,42.262v-7.565l-1.935.303v7.262h1.935ZM60.974,34.032c.664,0,1.198-.534,1.198-1.198s-.519-1.198-1.169-1.198c-.664,0-1.213.534-1.213,1.198s.534,1.198,1.184,1.198M68.675,41.973c.26-.159.39-.26.679-.548l-.881-1.17-.116.101c-.476.419-.88.607-1.327.607-.333,0-.664-.159-.867-.419-.245-.318-.376-.894-.376-1.862,0-1.732.39-2.483,1.257-2.483.361,0,.779.217,1.169.578l.938-1.271c-.318-.275-.447-.376-.722-.52-.405-.216-.938-.332-1.429-.332-.621,0-1.342.216-1.833.548-.867.592-1.516,1.718-1.516,3.422,0,2.396,1.184,3.811,3.219,3.811.708,0,1.285-.158,1.805-.462M74.412,39.028l-.029,1.588c-.289.318-.65.505-1.01.505-.491,0-.852-.39-.852-.967,0-.88.462-1.126,1.805-1.126h.086ZM76.996,41.453c-.65-.491-.708-.837-.694-1.646l.044-2.483c.014-.794-.029-1.025-.13-1.328-.289-.823-1.14-1.285-2.382-1.285-.679,0-1.3.13-2.021.433-.52.216-.808.361-1.198.606l.823,1.386c.794-.534,1.515-.837,2.137-.837.707,0,.865.274.865,1.097v.304c-.159-.014-.288-.014-.433-.014-2.353,0-3.551.809-3.551,2.541,0,1.473.895,2.31,2.541,2.31.606,0,1.126-.144,1.487-.404.144-.101.304-.245.447-.39.188.376.592.708,1.04.895l1.025-1.184ZM80.648,42.435c.505,0,1.01-.101,1.574-.332l-.246-1.155c-.346.101-.519.144-.692.144-.664,0-.838-.245-.838-1.184v-3.711h1.241l.491-1.328h-1.732c0-.751.043-1.559.116-2.238l-1.964.491c-.072.548-.072,1.025-.072,1.747h-.736v1.328h.736v4.013c0,.679.013.824.129,1.141.231.649,1.01,1.082,1.993,1.082M85.546,42.262v-7.565l-1.935.303v7.262h1.935ZM84.578,34.032c.664,0,1.198-.534,1.198-1.198s-.519-1.198-1.169-1.198c-.664,0-1.213.534-1.213,1.198s.534,1.198,1.184,1.198M91.406,36.544c.26.332.389.982.389,1.978,0,1.747-.361,2.498-1.198,2.498-.375,0-.808-.202-.981-.606-.159-.376-.245-1.01-.245-1.862,0-.736.072-1.256.202-1.646.159-.462.534-.751.996-.751.347,0,.65.144.838.39M92.98,41.395c.635-.722.924-1.588.924-2.858,0-1.199-.261-2.007-.852-2.7-.635-.751-1.458-1.112-2.512-1.112-1.992,0-3.32,1.545-3.32,3.869s1.314,3.827,3.32,3.827c1.141,0,1.877-.39,2.44-1.025M101.44,42.262v-5.399c0-.462-.044-.78-.145-1.054-.231-.636-.952-1.068-1.775-1.068-.434,0-.938.115-1.329.318-.317.173-.563.346-.852.548,0-.303-.101-.621-.274-.924l-1.718.49c.173.491.26,1.098.26,1.733v5.356h1.935v-5.226c.447-.405.953-.664,1.343-.664.505,0,.65.245.65,1.083v4.808h1.905Z"/>
</svg>